# xmcd
# 
# Track frame offsets:
#     150
#     17632
#     33655
#     51580
#     71037
#     92087
#     109425
#     122845
#     139927
#     155287
#     175667
#     195432
# 
# Disc length: 2852
# 
# Revision: 3
# Processed by: cddbd v1.5.2PL0 Copyright (c) Steve Scherf et al.
# Submitted via: fre:ac v1.0.31
# 
DISCID=aa0b220c
DTITLE=永井真理子 - 大好き
DYEAR=1989
DGENRE=JPop
TTITLE0=Step Step Step
TTITLE1=Fight!
TTITLE2=Brand-New Way
TTITLE3=One Step Closer
TTITLE4=瞳・元気
TTITLE5=親友
TTITLE6=ときめくハートビート
TTITLE7=20才のスピード
TTITLE8=Slow Down Kiss
TTITLE9=ロンリイザウルス
TTITLE10=少年
TTITLE11=Mariko
EXTD=YEAR: 1989
EXTT0=
EXTT1=
EXTT2=
EXTT3=
EXTT4=
EXTT5=
EXTT6=
EXTT7=
EXTT8=
EXTT9=
EXTT10=
EXTT11=
PLAYORDER=
